<svg width="144" height="44" viewBox="0 0 144 44" fill="none" xmlns="http://www.w3.org/2000/svg">
<path fill-rule="evenodd" clip-rule="evenodd" d="M36.6667 22C36.6667 31.2047 29.2047 38.6667 20 38.6667C10.7953 38.6667 3.33334 31.2047 3.33334 22C3.33334 12.7952 10.7953 5.33333 20 5.33333C29.2047 5.33333 36.6667 12.7952 36.6667 22ZM26.7172 16.9494C27.2053 17.4376 27.2053 18.2291 26.7172 18.7172L18.3838 27.0505C17.8957 27.5387 17.1043 27.5387 16.6161 27.0505L13.2828 23.7172C12.7946 23.229 12.7946 22.4377 13.2828 21.9495C13.7709 21.4613 14.5624 21.4613 15.0506 21.9495L17.5 24.3988L21.2247 20.6742L24.9495 16.9494C25.4377 16.4613 26.229 16.4613 26.7172 16.9494Z" fill="#00E600"/>
<path d="M57.952 33.256C57.2907 33.256 56.7787 33.0747 56.416 32.712C56.0747 32.328 55.904 31.8053 55.904 31.144V13.864H49.664C49.1093 13.864 48.672 13.7147 48.352 13.416C48.0533 13.096 47.904 12.6693 47.904 12.136C47.904 11.5813 48.0533 11.1653 48.352 10.888C48.672 10.5893 49.1093 10.44 49.664 10.44H66.24C66.7947 10.44 67.2213 10.5893 67.52 10.888C67.84 11.1653 68 11.5813 68 12.136C68 12.6693 67.84 13.096 67.52 13.416C67.2213 13.7147 66.7947 13.864 66.24 13.864H60V31.144C60 31.8053 59.8293 32.328 59.488 32.712C59.1467 33.0747 58.6347 33.256 57.952 33.256ZM72.607 33.32C71.4763 33.32 70.463 33.1067 69.567 32.68C68.6923 32.232 67.999 31.6347 67.487 30.888C66.9963 30.1413 66.751 29.2987 66.751 28.36C66.751 27.208 67.0497 26.3013 67.647 25.64C68.2443 24.9573 69.215 24.4667 70.559 24.168C71.903 23.8693 73.7057 23.72 75.967 23.72H77.567V26.024H75.999C74.6763 26.024 73.6203 26.088 72.831 26.216C72.0417 26.344 71.4763 26.568 71.135 26.888C70.815 27.1867 70.655 27.6133 70.655 28.168C70.655 28.872 70.9003 29.448 71.391 29.896C71.8817 30.344 72.5643 30.568 73.439 30.568C74.143 30.568 74.7617 30.408 75.295 30.088C75.8497 29.7467 76.287 29.288 76.607 28.712C76.927 28.136 77.087 27.4747 77.087 26.728V23.048C77.087 21.9813 76.8523 21.2133 76.383 20.744C75.9137 20.2747 75.1243 20.04 74.015 20.04C73.3963 20.04 72.7243 20.1147 71.999 20.264C71.295 20.4133 70.5483 20.6693 69.759 21.032C69.3537 21.224 68.991 21.2773 68.671 21.192C68.3723 21.1067 68.1377 20.936 67.967 20.68C67.7963 20.4027 67.711 20.104 67.711 19.784C67.711 19.464 67.7963 19.1547 67.967 18.856C68.1377 18.536 68.4257 18.3013 68.831 18.152C69.8123 17.7467 70.751 17.4587 71.647 17.288C72.5643 17.1173 73.3963 17.032 74.143 17.032C75.679 17.032 76.9377 17.2667 77.919 17.736C78.9217 18.2053 79.6683 18.92 80.159 19.88C80.6497 20.8187 80.895 22.0347 80.895 23.528V31.208C80.895 31.8693 80.735 32.3813 80.415 32.744C80.095 33.0853 79.6363 33.256 79.039 33.256C78.4417 33.256 77.9723 33.0853 77.631 32.744C77.311 32.3813 77.151 31.8693 77.151 31.208V29.672H77.407C77.2577 30.4187 76.959 31.0693 76.511 31.624C76.0843 32.1573 75.5403 32.5733 74.879 32.872C74.2177 33.1707 73.4603 33.32 72.607 33.32ZM90.683 33.32C89.7657 33.32 88.795 33.224 87.771 33.032C86.747 32.84 85.8297 32.5093 85.019 32.04C84.6777 31.8267 84.4323 31.5813 84.283 31.304C84.155 31.0053 84.1017 30.7173 84.123 30.44C84.1657 30.1413 84.2723 29.8853 84.443 29.672C84.635 29.4587 84.8697 29.32 85.147 29.256C85.4457 29.192 85.7657 29.2453 86.107 29.416C86.9603 29.8213 87.7603 30.1093 88.507 30.28C89.2537 30.4293 89.9897 30.504 90.715 30.504C91.739 30.504 92.4963 30.3333 92.987 29.992C93.499 29.6293 93.755 29.16 93.755 28.584C93.755 28.0933 93.5843 27.72 93.243 27.464C92.923 27.1867 92.4323 26.984 91.771 26.856L88.571 26.248C87.2483 25.992 86.235 25.512 85.531 24.808C84.8483 24.0827 84.507 23.1547 84.507 22.024C84.507 21 84.7843 20.1147 85.339 19.368C85.915 18.6213 86.7043 18.0453 87.707 17.64C88.7097 17.2347 89.8617 17.032 91.163 17.032C92.1017 17.032 92.9763 17.1387 93.787 17.352C94.619 17.544 95.419 17.8533 96.187 18.28C96.507 18.4507 96.7203 18.6747 96.827 18.952C96.955 19.2293 96.987 19.5173 96.923 19.816C96.859 20.0933 96.731 20.3493 96.539 20.584C96.347 20.7973 96.1017 20.936 95.803 21C95.5257 21.0427 95.2057 20.9787 94.843 20.808C94.1817 20.4667 93.5417 20.2213 92.923 20.072C92.3257 19.9227 91.7497 19.848 91.195 19.848C90.1497 19.848 89.371 20.0293 88.859 20.392C88.3683 20.7547 88.123 21.2347 88.123 21.832C88.123 22.28 88.2723 22.6533 88.571 22.952C88.8697 23.2507 89.3283 23.4533 89.947 23.56L93.147 24.168C94.5337 24.424 95.579 24.8933 96.283 25.576C97.0083 26.2587 97.371 27.176 97.371 28.328C97.371 29.8853 96.763 31.112 95.547 32.008C94.331 32.8827 92.7097 33.32 90.683 33.32ZM102.564 33.256C101.924 33.256 101.433 33.0853 101.092 32.744C100.751 32.3813 100.58 31.8693 100.58 31.208V12.2C100.58 11.5387 100.751 11.0373 101.092 10.696C101.433 10.3547 101.924 10.184 102.564 10.184C103.204 10.184 103.695 10.3547 104.036 10.696C104.399 11.0373 104.58 11.5387 104.58 12.2V24.008H104.644L109.924 18.44C110.351 18.0133 110.724 17.6827 111.044 17.448C111.364 17.2133 111.801 17.096 112.356 17.096C112.911 17.096 113.327 17.2453 113.604 17.544C113.903 17.8213 114.052 18.1627 114.052 18.568C114.052 18.9733 113.86 19.3787 113.476 19.784L107.908 25.672V24.008L114.02 30.6C114.404 31.0053 114.575 31.4213 114.532 31.848C114.511 32.2533 114.34 32.5947 114.02 32.872C113.7 33.128 113.295 33.256 112.804 33.256C112.207 33.256 111.727 33.1387 111.364 32.904C111.023 32.6693 110.639 32.3173 110.212 31.848L104.644 26.024H104.58V31.208C104.58 32.5733 103.908 33.256 102.564 33.256ZM120.808 33.256C120.168 33.256 119.667 33.0853 119.304 32.744C118.963 32.3813 118.792 31.8693 118.792 31.208V20.36H117.32C116.808 20.36 116.414 20.232 116.136 19.976C115.859 19.6987 115.72 19.3253 115.72 18.856C115.72 18.3653 115.859 17.992 116.136 17.736C116.414 17.48 116.808 17.352 117.32 17.352H119.944L118.792 18.408V17.32C118.792 15.1227 119.347 13.48 120.456 12.392C121.566 11.2827 123.166 10.632 125.256 10.44L126.344 10.344C126.771 10.3013 127.112 10.376 127.368 10.568C127.624 10.7387 127.795 10.9733 127.88 11.272C127.966 11.5493 127.976 11.8373 127.912 12.136C127.848 12.4347 127.71 12.7013 127.496 12.936C127.304 13.1493 127.048 13.2667 126.728 13.288L126.28 13.32C125.064 13.4053 124.179 13.7147 123.624 14.248C123.07 14.7813 122.792 15.592 122.792 16.68V17.864L122.28 17.352H125.512C126.024 17.352 126.419 17.48 126.696 17.736C126.974 17.992 127.112 18.3653 127.112 18.856C127.112 19.3253 126.974 19.6987 126.696 19.976C126.419 20.232 126.024 20.36 125.512 20.36H122.792V31.208C122.792 32.5733 122.131 33.256 120.808 33.256ZM133.048 39.016C132.579 39.016 132.195 38.888 131.896 38.632C131.597 38.3973 131.416 38.0773 131.352 37.672C131.309 37.2667 131.384 36.84 131.576 36.392L133.752 31.56V33.224L127.928 19.752C127.736 19.2827 127.672 18.8453 127.736 18.44C127.8 18.0347 127.992 17.7147 128.312 17.48C128.653 17.224 129.112 17.096 129.688 17.096C130.179 17.096 130.573 17.2133 130.872 17.448C131.171 17.6613 131.437 18.0773 131.672 18.696L135.992 29.48H135.032L139.448 18.664C139.683 18.0667 139.96 17.6613 140.28 17.448C140.6 17.2133 141.027 17.096 141.56 17.096C142.029 17.096 142.403 17.224 142.68 17.48C142.957 17.7147 143.128 18.0347 143.192 18.44C143.256 18.824 143.181 19.2507 142.968 19.72L135.192 37.48C134.915 38.0773 134.616 38.4827 134.296 38.696C133.976 38.9093 133.56 39.016 133.048 39.016Z" fill="#00E600"/>
</svg>
