<svg width="20" height="20" viewBox="0 0 20 20" fill="none" xmlns="http://www.w3.org/2000/svg">
<path fill-rule="evenodd" clip-rule="evenodd" d="M5.83342 1.45834C6.17859 1.45834 6.45842 1.73817 6.45842 2.08334V2.71894C7.01011 2.70834 7.61791 2.70834 8.2864 2.70834H11.7137C12.3822 2.70834 12.9901 2.70834 13.5417 2.71894V2.08334C13.5417 1.73817 13.8216 1.45834 14.1667 1.45834C14.5119 1.45834 14.7917 1.73817 14.7917 2.08334V2.77259C15.0083 2.7891 15.2135 2.80986 15.4076 2.83595C16.3846 2.96731 17.1754 3.24408 17.7991 3.86771C18.4227 4.49135 18.6994 5.28214 18.8308 6.25916C18.8727 6.5714 18.9009 6.91217 18.9198 7.2834C18.9448 7.35089 18.9584 7.42385 18.9584 7.50001C18.9584 7.55778 18.9506 7.61371 18.9359 7.66681C18.9584 8.33509 18.9584 9.09401 18.9584 9.95301V11.7137C18.9584 13.2452 18.9584 14.4582 18.8308 15.4075C18.6994 16.3845 18.4227 17.1753 17.7991 17.799C17.1754 18.4226 16.3846 18.6993 15.4076 18.8308C14.4582 18.9583 13.2452 18.9583 11.7137 18.9583H8.28641C6.75494 18.9583 5.54191 18.9583 4.59257 18.8308C3.61555 18.6993 2.82476 18.4226 2.20112 17.799C1.57748 17.1753 1.30072 16.3845 1.16937 15.4075C1.04172 14.4582 1.04173 13.2452 1.04175 11.7137V9.95301C1.04174 9.09393 1.04173 8.33509 1.06426 7.66682C1.04959 7.61372 1.04175 7.55778 1.04175 7.50001C1.04175 7.42386 1.05537 7.35088 1.08031 7.28339C1.09921 6.91216 1.12738 6.57139 1.16937 6.25916C1.30072 5.28214 1.57748 4.49135 2.20112 3.86771C2.82476 3.24408 3.61555 2.96731 4.59257 2.83595C4.78667 2.80986 4.9918 2.7891 5.20842 2.77259V2.08334C5.20842 1.73817 5.48824 1.45834 5.83342 1.45834ZM2.30266 8.12501C2.29201 8.66893 2.29175 9.28834 2.29175 10V11.6667C2.29175 13.2557 2.29307 14.3846 2.40822 15.241C2.52093 16.0793 2.73232 16.5624 3.085 16.9151C3.43767 17.2678 3.92071 17.4792 4.75912 17.5918C5.61551 17.707 6.7444 17.7083 8.33341 17.7083H11.6667C13.2557 17.7083 14.3847 17.707 15.2411 17.5918C16.0794 17.4792 16.5625 17.2678 16.9152 16.9151C17.2678 16.5624 17.4792 16.0793 17.5919 15.241C17.7071 14.3846 17.7084 13.2557 17.7084 11.6667V10C17.7084 9.28834 17.7082 8.66893 17.6975 8.12501H2.30266ZM17.6403 6.87501H2.35982C2.37317 6.71719 2.38912 6.5677 2.40822 6.42572C2.52093 5.58731 2.73232 5.10427 3.085 4.75159C3.43767 4.39892 3.92071 4.18753 4.75912 4.07481C5.61551 3.95967 6.7444 3.95834 8.33341 3.95834H11.6667C13.2557 3.95834 14.3847 3.95967 15.2411 4.07481C16.0794 4.18753 16.5625 4.39892 16.9152 4.75159C17.2678 5.10427 17.4792 5.58731 17.5919 6.42572C17.611 6.5677 17.627 6.71719 17.6403 6.87501ZM13.7501 13.125C13.4049 13.125 13.1251 13.4048 13.1251 13.75C13.1251 14.0952 13.4049 14.375 13.7501 14.375C14.0952 14.375 14.3751 14.0952 14.3751 13.75C14.3751 13.4048 14.0952 13.125 13.7501 13.125ZM11.8751 13.75C11.8751 12.7145 12.7146 11.875 13.7501 11.875C14.7856 11.875 15.6251 12.7145 15.6251 13.75C15.6251 14.7855 14.7856 15.625 13.7501 15.625C12.7146 15.625 11.8751 14.7855 11.8751 13.75Z" fill="#909090"/>
</svg>
