<svg width="48" height="48" viewBox="0 0 48 48" fill="none" xmlns="http://www.w3.org/2000/svg">
<path d="M6.85712 8.99999C6.85712 5.92298 9.35152 3.42856 12.4285 3.42856H35.5714C38.6484 3.42856 41.1428 5.92296 41.1428 8.99999V29.792C40.9364 29.93 40.7405 30.0903 40.5583 30.2726L38.5714 32.2594V8.99999C38.5714 7.34313 37.2283 5.99999 35.5714 5.99999H12.4285C10.7717 5.99999 9.42854 7.34313 9.42854 8.99999V38.9995C9.42854 40.6563 10.7717 41.9995 12.4285 41.9995H26.2589L28.8303 44.5709H12.4285C9.35152 44.5709 6.85712 42.0764 6.85712 38.9995V8.99999Z" fill="#00E600"/>
<path d="M18 15C18 16.1835 17.0406 17.1429 15.8572 17.1429C14.6737 17.1429 13.7143 16.1835 13.7143 15C13.7143 13.8165 14.6737 12.8571 15.8572 12.8571C17.0406 12.8571 18 13.8165 18 15Z" fill="#00E600"/>
<path d="M15.8572 26.1425C17.0406 26.1425 18 25.1832 18 23.9997C18 22.8163 17.0406 21.8568 15.8572 21.8568C14.6737 21.8568 13.7143 22.8163 13.7143 23.9997C13.7143 25.1832 14.6737 26.1425 15.8572 26.1425Z" fill="#00E600"/>
<path d="M15.8572 35.1429C17.0406 35.1429 18 34.1835 18 33C18 31.8165 17.0406 30.8571 15.8572 30.8571C14.6737 30.8571 13.7143 31.8165 13.7143 33C13.7143 34.1835 14.6737 35.1429 15.8572 35.1429Z" fill="#00E600"/>
<path d="M21.8571 13.7143C21.1471 13.7143 20.5714 14.2899 20.5714 15C20.5714 15.7101 21.1471 16.2857 21.8571 16.2857H33C33.71 16.2857 34.2857 15.7101 34.2857 15C34.2857 14.2899 33.71 13.7143 33 13.7143H21.8571Z" fill="#00E600"/>
<path d="M20.5714 23.9996C20.5714 23.2896 21.1471 22.7139 21.8571 22.7139H33C33.71 22.7139 34.2857 23.2896 34.2857 23.9996C34.2857 24.7097 33.71 25.2854 33 25.2854H21.8571C21.1471 25.2854 20.5714 24.7097 20.5714 23.9996Z" fill="#00E600"/>
<path d="M21.8571 31.7143C21.1471 31.7143 20.5714 32.29 20.5714 33C20.5714 33.7101 21.1471 34.2857 21.8571 34.2857H33C33.71 34.2857 34.2857 33.7101 34.2857 33C34.2857 32.29 33.71 31.7143 33 31.7143H21.8571Z" fill="#00E600"/>
<path d="M44.1948 33.9091L33.9091 44.1948C33.668 44.436 33.341 44.5714 33 44.5714C32.659 44.5714 32.3319 44.436 32.0909 44.1948L26.9513 39.0554C26.4492 38.5533 26.4492 37.7391 26.9513 37.237C27.4534 36.7349 28.2675 36.7349 28.7696 37.237L33 41.4674L42.3766 32.0909C42.8787 31.5888 43.6927 31.5888 44.1948 32.0909C44.6969 32.593 44.6969 33.407 44.1948 33.9091Z" fill="#00E600"/>
</svg>
