<svg width="48" height="48" viewBox="0 0 48 48" fill="none" xmlns="http://www.w3.org/2000/svg">
<path d="M6.85715 8.99999C6.85715 5.92298 9.35155 3.42856 12.4286 3.42856H35.5714C38.6484 3.42856 41.1429 5.92296 41.1429 8.99999V29.792C40.9365 29.93 40.7405 30.0903 40.5583 30.2726L38.5714 32.2594V8.99999C38.5714 7.34313 37.2283 5.99999 35.5714 5.99999H12.4286C10.7717 5.99999 9.42858 7.34313 9.42858 8.99999V38.9995C9.42858 40.6563 10.7717 41.9995 12.4286 41.9995H26.2589L28.8303 44.5709H12.4286C9.35155 44.5709 6.85715 42.0764 6.85715 38.9995V8.99999Z" fill="#00E600"/>
<path d="M18 15C18 16.1835 17.0406 17.1429 15.8572 17.1429C14.6737 17.1429 13.7143 16.1835 13.7143 15C13.7143 13.8165 14.6737 12.8571 15.8572 12.8571C17.0406 12.8571 18 13.8165 18 15Z" fill="#00E600"/>
<path d="M15.8572 26.1425C17.0406 26.1425 18 25.1832 18 23.9997C18 22.8163 17.0406 21.8568 15.8572 21.8568C14.6737 21.8568 13.7143 22.8163 13.7143 23.9997C13.7143 25.1832 14.6737 26.1425 15.8572 26.1425Z" fill="#00E600"/>
<path d="M15.8572 35.1429C17.0406 35.1429 18 34.1835 18 33C18 31.8165 17.0406 30.8571 15.8572 30.8571C14.6737 30.8571 13.7143 31.8165 13.7143 33C13.7143 34.1835 14.6737 35.1429 15.8572 35.1429Z" fill="#00E600"/>
<path d="M21.8572 13.7143C21.1471 13.7143 20.5714 14.2899 20.5714 15C20.5714 15.7101 21.1471 16.2857 21.8572 16.2857H33C33.7101 16.2857 34.2857 15.7101 34.2857 15C34.2857 14.2899 33.7101 13.7143 33 13.7143H21.8572Z" fill="#00E600"/>
<path d="M20.5714 23.9996C20.5714 23.2896 21.1471 22.7139 21.8572 22.7139H33C33.7101 22.7139 34.2857 23.2896 34.2857 23.9996C34.2857 24.7097 33.7101 25.2854 33 25.2854H21.8572C21.1471 25.2854 20.5714 24.7097 20.5714 23.9996Z" fill="#00E600"/>
<path d="M21.8572 31.7143C21.1471 31.7143 20.5714 32.29 20.5714 33C20.5714 33.7101 21.1471 34.2857 21.8572 34.2857H33C33.7101 34.2857 34.2857 33.7101 34.2857 33C34.2857 32.29 33.7101 31.7143 33 31.7143H21.8572Z" fill="#00E600"/>
<path d="M36.0526 44.0526C36.0526 44.3039 36.1524 44.5449 36.3301 44.7225C36.5078 44.9002 36.7487 45 37 45C37.2513 45 37.4922 44.9002 37.6699 44.7225C37.8476 44.5449 37.9474 44.3039 37.9474 44.0526V39.9474H42.0526C42.3039 39.9474 42.5449 39.8476 42.7225 39.6699C42.9002 39.4922 43 39.2513 43 39C43 38.7487 42.9002 38.5078 42.7225 38.3301C42.5449 38.1524 42.3039 38.0526 42.0526 38.0526H37.9474V33.9474C37.9474 33.6961 37.8476 33.4551 37.6699 33.2775C37.4922 33.0998 37.2513 33 37 33C36.7487 33 36.5078 33.0998 36.3301 33.2775C36.1524 33.4551 36.0526 33.6961 36.0526 33.9474V38.0526H31.9474C31.6961 38.0526 31.4551 38.1524 31.2775 38.3301C31.0998 38.5078 31 38.7487 31 39C31 39.2513 31.0998 39.4922 31.2775 39.6699C31.4551 39.8476 31.6961 39.9474 31.9474 39.9474H36.0526V44.0526Z" fill="#00E600"/>
</svg>
