<svg width="40" height="40" viewBox="0 0 40 40" fill="none" xmlns="http://www.w3.org/2000/svg">
<path fill-rule="evenodd" clip-rule="evenodd" d="M36.6667 20C36.6667 29.2047 29.2047 36.6667 20 36.6667C10.7953 36.6667 3.33334 29.2047 3.33334 20C3.33334 10.7952 10.7953 3.33333 20 3.33333C29.2047 3.33333 36.6667 10.7952 36.6667 20ZM26.7172 14.9494C27.2053 15.4376 27.2053 16.2291 26.7172 16.7172L18.3838 25.0505C17.8957 25.5387 17.1043 25.5387 16.6161 25.0505L13.2828 21.7172C12.7946 21.229 12.7946 20.4377 13.2828 19.9495C13.7709 19.4613 14.5624 19.4613 15.0506 19.9495L17.5 22.3988L21.2247 18.6742L24.9495 14.9494C25.4377 14.4613 26.229 14.4613 26.7172 14.9494Z" fill="#00E600"/>
</svg>
